<svg width="270" height="240" viewBox="0 0 270 240" fill="none" xmlns="http://www.w3.org/2000/svg">
<path fill-rule="evenodd" clip-rule="evenodd" d="M180 0H150V30H120V0H90H60H30V30H0V60V90V120H30V150H60V180H90V210H120V240H150V210H180V180H210V150H240V120H270V90V60V30H240V0H210H180ZM240 30V60V90V120H210V150H180V180H150V210H120V180H90V150H60V120H30V90V60V30H60H90H120V60H150V30H180H210H240Z" fill="black"/>
<path fill-rule="evenodd" clip-rule="evenodd" d="M30 30H60H90V60H60V90H30V60V30Z" fill="white"/>
<path fill-rule="evenodd" clip-rule="evenodd" d="M150 30H180H210H240V60H210V90V120H180V150H150V180H120H90V150H60V120H30V90H60V60H90V30H120V60H150V30Z" fill="#FF0F0F"/>
<path fill-rule="evenodd" clip-rule="evenodd" d="M240 60H210V90V120H180V150H150V180H120V210H150V180H180V150H210V120H240V90V60Z" fill="#B61111"/>
</svg>
